<svg xmlns="http://www.w3.org/2000/svg" viewBox="0 0 500 500" width="500" height="500">
  <defs>
    <style>@import url('https://fonts.googleapis.com/css2?family=Cormorant+Garamond:ital,wght@0,300;0,400;0,500;1,400;1,500&amp;family=Jost:wght@300;400;500&amp;display=swap');</style>
  </defs>

  <rect width="500" height="500" fill="#0C1929"/>
  <rect x="14" y="14" width="472" height="472" fill="none" stroke="#BF9645" stroke-width="0.9" rx="2"/>

  <polyline points="14,76 14,14 76,14"   fill="none" stroke="#D4AF5A" stroke-width="2.5" stroke-linecap="square"/>
  <polyline points="424,14 486,14 486,76" fill="none" stroke="#D4AF5A" stroke-width="2.5" stroke-linecap="square"/>
  <polyline points="14,424 14,486 76,486" fill="none" stroke="#D4AF5A" stroke-width="2.5" stroke-linecap="square"/>
  <polyline points="424,486 486,486 486,424" fill="none" stroke="#D4AF5A" stroke-width="2.5" stroke-linecap="square"/>

  <circle cx="14"  cy="14"  r="3" fill="#D4AF5A"/>
  <circle cx="486" cy="14"  r="3" fill="#D4AF5A"/>
  <circle cx="14"  cy="486" r="3" fill="#D4AF5A"/>
  <circle cx="486" cy="486" r="3" fill="#D4AF5A"/>

  <text x="250" y="108"
        font-family="'Jost',sans-serif" font-size="9" font-weight="500"
        fill="#D4AF5A" text-anchor="middle" letter-spacing="4">CELEBRATING</text>

  <line x1="90"  y1="124" x2="218" y2="124" stroke="#BF9645" stroke-width="0.7"/>
  <circle cx="250" cy="124" r="5"   stroke="#BF9645" stroke-width="0.9" fill="none"/>
  <circle cx="250" cy="124" r="2"   fill="#BF9645"/>
  <line x1="282" y1="124" x2="410" y2="124" stroke="#BF9645" stroke-width="0.7"/>

  <text x="250" y="244"
        font-family="'Cormorant Garamond','Palatino Linotype',Georgia,serif"
        font-size="74" font-weight="300"
        fill="#FFFFFF" text-anchor="middle" letter-spacing="10">MARIAM</text>

  <line x1="90"  y1="268" x2="218" y2="268" stroke="#BF9645" stroke-width="0.7"/>
  <circle cx="250" cy="268" r="5"   stroke="#BF9645" stroke-width="0.9" fill="none"/>
  <circle cx="250" cy="268" r="2"   fill="#BF9645"/>
  <line x1="282" y1="268" x2="410" y2="268" stroke="#BF9645" stroke-width="0.7"/>

  <text x="250" y="350"
        font-family="'Cormorant Garamond','Palatino Linotype',Georgia,serif"
        font-size="66" font-weight="400" font-style="italic"
        fill="#D4AF5A" text-anchor="middle" letter-spacing="4">@ 50</text>

  <line x1="110" y1="374" x2="218" y2="374" stroke="#BF9645" stroke-width="0.7"/>
  <circle cx="250" cy="374" r="5"   stroke="#BF9645" stroke-width="0.9" fill="none"/>
  <circle cx="250" cy="374" r="2"   fill="#BF9645"/>
  <line x1="282" y1="374" x2="390" y2="374" stroke="#BF9645" stroke-width="0.7"/>

  <text x="250" y="412"
        font-family="'Jost',sans-serif" font-size="11" font-weight="300"
        fill="#FFFFFF" text-anchor="middle" letter-spacing="5" opacity="0.65">08  .  08  .  2026</text>

</svg>
